<?xml version="1.0" encoding="UTF-8" standalone="no"?>
<!DOCTYPE svg PUBLIC "-//W3C//DTD SVG 1.1//EN" "http://www.w3.org/Graphics/SVG/1.1/DTD/svg11.dtd">
<!-- Created with Vectornator (http://vectornator.io/) -->
<svg height="100%" stroke-miterlimit="10" style="fill-rule:nonzero;clip-rule:evenodd;stroke-linecap:round;stroke-linejoin:round;" version="1.1" viewBox="0 0 1920 1920" width="100%" xml:space="preserve" xmlns="http://www.w3.org/2000/svg" xmlns:vectornator="http://vectornator.io" xmlns:xlink="http://www.w3.org/1999/xlink">
<defs/>
<g id="Untitled" vectornator:layerName="Untitled">
<path d="M909.191 303.66L909.191 404.68L101.021 404.68L101.021 1818.98L1515.32 1818.98L1515.32 1097.49L1616.34 1097.49L1616.34 1920L0 1920L0 303.66L909.191 303.66ZM1562.13 0C1602.64 0 1640.63 15.76 1669.11 44.348L1875.7 250.836C1934.7 309.933 1934.7 406.106 1875.7 465.102L1666.18 674.62L1316.75 325.288L497.974 1144.07L775.884 1421.98L1499.4 698.562L1570.82 769.984L713.453 1627.25L187.435 1732.41L292.699 1206.5L1454.85 44.348C1483.44 15.76 1521.52 0 1562.03 0L1562.13 0ZM426.552 1215.49L385.841 1256.3L316.338 1603.71L663.75 1534.21L704.462 1493.4L426.552 1215.49L426.552 1215.49ZM1310.56 538.019L1381.98 609.441L757.265 1234.16L685.843 1162.74L1310.56 538.019ZM1562.13 101.021L1562.03 101.021C1548.49 101.021 1535.87 106.274 1526.27 115.771L1388.17 253.866L1666.18 531.776L1804.28 393.68C1823.88 373.98 1823.88 341.957 1804.28 322.157L1597.69 115.77C1588.1 106.173 1575.47 101.021 1562.13 101.021Z" fill="#c5a8a8" fill-rule="evenodd" opacity="1" stroke="none"/>
</g>
</svg>
