<?xml version="1.0" encoding="utf-8"?><!-- Uploaded to: SVG Repo, www.svgrepo.com, Generator: SVG Repo Mixer Tools -->
<svg fill="#000000" width="800px" height="800px" viewBox="0 0 24 24" id="file-folder" data-name="Flat Line" xmlns="http://www.w3.org/2000/svg" class="icon flat-line"><path id="secondary" d="M4,9H9l2,2h9a1,1,0,0,1,1,1v8a1,1,0,0,1-1,1H4a1,1,0,0,1-1-1V10A1,1,0,0,1,4,9Z" style="fill: rgb(44, 169, 188); stroke-width: 2;"></path><path id="primary" d="M5,9V4A1,1,0,0,1,6,3H18a1,1,0,0,1,1,1v7H11L9,9ZM3,10V20a1,1,0,0,0,1,1H20a1,1,0,0,0,1-1V12a1,1,0,0,0-1-1H11L9,9H4A1,1,0,0,0,3,10Z" style="fill: none; stroke: rgb(0, 0, 0); stroke-linecap: round; stroke-linejoin: round; stroke-width: 2;"></path></svg>